<svg width="329" height="41" viewBox="0 0 329 41" xmlns="http://www.w3.org/2000/svg">
<path fill-rule="evenodd" clip-rule="evenodd" d="M235.32 0C236.048 0.0138124 236.742 0.312822 237.252 0.832764C237.763 1.35271 238.048 2.05208 238.048 2.78052C238.048 3.50895 237.763 4.20833 237.252 4.72827C236.742 5.24821 236.048 5.54722 235.32 5.56104C234.592 5.54722 233.898 5.24821 233.388 4.72827C232.878 4.20833 232.592 3.50895 232.592 2.78052C232.592 2.05208 232.878 1.35271 233.388 0.832764C233.898 0.312822 234.592 0.0138124 235.32 0ZM233.13 9.81604H237.511V32.4821H233.131L233.13 9.81604ZM105.004 13.186H108.585V32.4861H112.966V13.186H118.232V9.81604H112.966V8.84705C112.966 5.64505 114.062 4.4231 116.589 4.4231C117.169 4.42233 117.748 4.47888 118.317 4.59204V0.926025C117.537 0.799126 116.748 0.728982 115.958 0.716064C111.285 0.716064 108.585 3.49605 108.585 8.84705V9.81604H105.004V13.186ZM123.346 31.0253C125.299 32.3314 127.595 33.029 129.945 33.03C131.521 33.0895 133.093 32.8229 134.562 32.247C136.031 31.671 137.364 30.798 138.48 29.6827C139.596 28.5675 140.469 27.2339 141.046 25.7655C141.623 24.2971 141.89 22.7255 141.831 21.1491C141.831 18.7994 141.134 16.5025 139.829 14.5488C138.524 12.5951 136.668 11.0724 134.498 10.173C132.327 9.27359 129.938 9.03795 127.634 9.49598C125.329 9.95401 123.212 11.085 121.551 12.7461C119.889 14.4072 118.757 16.5238 118.298 18.8281C117.839 21.1325 118.074 23.5212 118.972 25.6923C119.871 27.8633 121.392 29.7192 123.346 31.0253ZM122.573 21.1491C122.573 16.5181 125.522 13.0181 129.945 13.0181C134.369 13.0181 137.318 16.5181 137.318 21.1491C137.318 25.7801 134.368 29.28 129.945 29.28C125.522 29.28 122.573 25.7801 122.573 21.1491ZM144.819 9.81599H149.074V13.987C149.698 12.5498 150.781 11.3602 152.153 10.6053C153.526 9.85035 155.111 9.57273 156.658 9.81599V14.071C156.447 14.029 155.059 14.029 154.888 14.029C150.888 14.029 149.159 16.093 149.159 20.601V32.482H144.819V9.81599ZM166.981 32.4821V29.1541C167.841 30.3914 168.997 31.3941 170.343 32.071C171.69 32.748 173.184 33.0776 174.69 33.03C180.715 33.03 185.56 28.142 185.56 21.149C185.56 14.156 180.715 9.26807 174.69 9.26807C173.184 9.22076 171.69 9.55051 170.344 10.2274C168.997 10.9043 167.842 11.9069 166.981 13.144V1.09509H162.599V32.4821H166.981ZM166.728 21.149C166.728 16.22 169.677 12.891 173.89 12.891C178.061 12.891 181.01 16.22 181.01 21.149C181.01 26.078 178.061 29.4071 173.89 29.4071C169.677 29.4071 166.728 26.078 166.728 21.149ZM190.786 30.839C188.974 29.28 188.086 26.921 188.086 23.171V9.81604H192.467V23.0031C192.467 25.3621 192.931 26.795 193.816 27.764C194.339 28.2958 194.972 28.707 195.671 28.9689C196.369 29.2307 197.116 29.3369 197.86 29.28C198.604 29.3327 199.35 29.2246 200.048 28.963C200.746 28.7014 201.379 28.2924 201.905 27.764C202.747 26.795 203.253 25.3641 203.253 23.0031V9.81604H207.634V23.171C207.634 26.921 206.707 29.28 204.896 30.839C203.296 32.271 200.896 33.03 197.86 33.03C194.788 33.03 192.387 32.271 190.786 30.839ZM214.759 25.2361H210.504C211.22 30.7131 215.307 33.03 220.363 33.03C225.502 33.03 229.589 30.502 229.589 25.868C229.589 21.655 225.882 20.095 221.711 19.295L218.761 18.7061C216.234 18.2061 215.012 17.2331 215.012 15.5061C215.012 13.5261 217.287 12.556 219.604 12.556C222.3 12.556 224.323 13.736 224.87 16.222H229C228.367 11.419 224.449 9.18604 219.731 9.18604C214.717 9.18604 210.925 11.9251 210.925 15.7161C210.925 19.4661 213.79 21.5311 217.835 22.3311L220.994 22.963C223.649 23.468 225.376 24.311 225.376 26.375C225.376 28.606 222.89 29.5751 220.531 29.5751C217.413 29.5751 215.265 28.1851 214.759 25.2361ZM246.696 9.81605H242.314V32.4821H246.696V19C246.696 14.791 248.891 12.891 251.836 12.891C254.781 12.891 256.681 14.787 256.681 19V32.4821H261.063V18.1581C261.063 12.6811 258.577 9.26808 253.268 9.26808C251.96 9.17687 250.652 9.45179 249.491 10.062C248.33 10.6723 247.363 11.5937 246.696 12.723V9.81605ZM275.346 33.03C268.395 33.03 263.592 27.93 263.592 21.149C263.592 14.408 268.437 9.26807 275.346 9.26807C282.424 9.26807 286.974 14.619 286.764 22.202H268.1C268.479 26.289 271.386 29.323 275.473 29.323C276.815 29.4174 278.153 29.0905 279.301 28.3879C280.448 27.6854 281.347 26.6423 281.873 25.4041H286.465C285.037 30.0811 280.781 33.03 275.346 33.03ZM268.231 18.958H282.127C281.993 17.2543 281.21 15.667 279.941 14.5227C278.671 13.3785 277.012 12.7644 275.303 12.807C273.581 12.8091 271.918 13.4324 270.619 14.5624C269.32 15.6923 268.472 17.2531 268.231 18.958ZM292.832 25.2361H288.577C289.294 30.7131 293.38 33.03 298.435 33.03C303.576 33.03 307.662 30.502 307.662 25.868C307.662 21.655 303.955 20.095 299.784 19.295L296.835 18.7061C294.307 18.2061 293.085 17.2331 293.085 15.5061C293.085 13.5261 295.36 12.556 297.677 12.556C300.374 12.556 302.396 13.736 302.944 16.222H307.072C306.441 11.419 302.522 9.18604 297.804 9.18604C292.79 9.18604 288.998 11.9251 288.998 15.7161C288.998 19.4661 291.863 21.5311 295.908 22.3311L299.068 22.963C301.722 23.468 303.449 24.311 303.449 26.375C303.449 28.606 300.963 29.5751 298.604 29.5751C295.487 29.5751 293.338 28.1851 292.832 25.2361ZM309.77 25.2361H314.026C314.526 28.1851 316.68 29.5751 319.797 29.5751C322.156 29.5751 324.643 28.606 324.643 26.375C324.643 24.311 322.915 23.468 320.261 22.963L317.101 22.3311C313.056 21.5311 310.191 19.4661 310.191 15.7161C310.191 11.9251 313.983 9.18604 318.997 9.18604C323.715 9.18604 327.634 11.419 328.265 16.222H324.137C323.589 13.736 321.567 12.556 318.87 12.556C316.553 12.556 314.278 13.5261 314.278 15.5061C314.278 17.2331 315.5 18.2061 318.028 18.7061L320.977 19.295C325.148 20.095 328.856 21.655 328.856 25.868C328.856 30.502 324.769 33.03 319.629 33.03C314.573 33.03 310.487 30.7131 309.77 25.2361ZM45.593 20.77C45.593 25.792 42.4302 29.119 37.8062 29.119C33.2092 29.119 30.019 25.792 30.019 20.77C30.019 15.748 33.2062 12.42 37.8062 12.42C42.4302 12.42 45.593 15.748 45.593 20.77ZM30.019 0.268066H25.0452L25.0459 20.4215C24.9254 12.6021 19.8226 9.01599 12.8872 9.01599C4.06921 9.01599 0.00317383 13.793 0.00317383 21.047C0.00317383 27.636 3.93222 32.5221 12.8032 32.5221C17.6832 32.5221 23.3491 30.7111 24.3491 25.3761H19.218C18.33 28.0051 15.6962 29.214 12.7302 29.214C11.7484 29.2739 10.7644 29.1328 9.83911 28.7991C8.91379 28.4654 8.06645 27.9461 7.34888 27.2733C6.63131 26.6005 6.0588 25.7882 5.66626 24.8862C5.27372 23.9843 5.06951 23.0117 5.06616 22.0281H25.046L25.0461 26.562C25.0461 28.153 24.9622 30.1191 24.8772 31.6991H29.7581C29.8715 30.6918 29.9279 29.6787 29.927 28.665C31.0651 29.94 32.4714 30.9473 34.0447 31.6146C35.618 32.282 37.3194 32.5929 39.0271 32.525C44.8542 32.525 49.2573 29.0037 50.4789 23.828C50.3656 24.3558 50.3081 24.9262 50.3081 25.542C50.3081 29.285 53.585 32.5221 59.708 32.5221C63.836 32.5221 66.8142 31.638 69.3142 28.562C69.3098 29.609 69.3659 30.6555 69.4822 31.696H74.1101C73.9831 30.409 73.9412 28.9801 73.9412 27.5321L73.947 17.3671C73.947 15.8906 73.6685 14.6456 73.1652 13.6053L82.7441 31.661L78.321 40.0491H83.8911L99.2732 9.84399L94 9.84106L85.5061 26.889L76.988 9.84106H71.1682L72.9282 13.1586C71.174 10.132 67.354 9.01599 63.0471 9.01599C58.1161 9.01599 52.5071 10.3661 51.9541 15.7051H57.1812C57.4092 13.5641 59.6151 12.3251 62.6091 12.3251C66.6421 12.3251 68.969 13.817 68.969 17.446V17.9761C67.008 17.9761 64.6251 17.9831 62.5081 18.0321C55.7427 18.1868 51.4851 19.6655 50.5186 23.6541C50.716 22.7597 50.8191 21.8172 50.8191 20.8361C50.8191 12.7601 44.6621 9.01904 39.1191 9.01904C35.8191 9.01904 32.457 9.86807 30.019 12.7681V0.268066ZM19.8181 18.7201C19.6251 14.0661 16.266 12.3201 12.676 12.3201C8.80503 12.3201 5.71503 14.2791 5.17603 18.7201H19.8181ZM62.8481 21.3671C58.3371 21.5151 55.5342 22.329 55.5342 25.3C55.5342 27.224 57.0672 29.3091 60.9612 29.3091C66.1802 29.3091 68.9612 26.4641 68.9612 21.7981V21.2841C67.1372 21.2841 64.8801 21.3011 62.8481 21.3671Z"/>
</svg>
